<?xml version="1.0" encoding="UTF-8" standalone="no"?>
<!-- Created with Inkscape (http://www.inkscape.org/) -->

<svg
   version="1.1"
   id="svg359"
   width="1489.4545"
   height="1489.4545"
   viewBox="0 0 1489.4545 1489.4545"
   sodipodi:docname="image3.svg"
   inkscape:version="1.1.2 (b8e25be833, 2022-02-05)"
   xmlns:inkscape="http://www.inkscape.org/namespaces/inkscape"
   xmlns:sodipodi="http://sodipodi.sourceforge.net/DTD/sodipodi-0.dtd"
   xmlns="http://www.w3.org/2000/svg"
   xmlns:svg="http://www.w3.org/2000/svg">
  <defs
     id="defs363" />
  <sodipodi:namedview
     id="namedview361"
     pagecolor="#ffffff"
     bordercolor="#666666"
     borderopacity="1.0"
     inkscape:pageshadow="2"
     inkscape:pageopacity="0.0"
     inkscape:pagecheckerboard="0"
     showgrid="false"
     inkscape:zoom="0.76718328"
     inkscape:cx="671.28679"
     inkscape:cy="863.54854"
     inkscape:window-width="1920"
     inkscape:window-height="1001"
     inkscape:window-x="-9"
     inkscape:window-y="-9"
     inkscape:window-maximized="1"
     inkscape:current-layer="g365" />
  <g
     inkscape:groupmode="layer"
     inkscape:label="Image"
     id="g365">
    <path
       style="fill:#000000;stroke-width:0.727273"
       d="m 392.67185,1408.7248 c -2.2,-0.2944 -5.31858,-0.8992 -6.93016,-1.3439 -1.61159,-0.4448 -5.7025,-1.3211 -9.09091,-1.9474 -11.7263,-2.1672 -34.04342,-10.2136 -50.52438,-18.2164 -8.1316,-3.9485 -9.25438,-4.7615 -16.44988,-11.9111 -4.24743,-4.2204 -8.96977,-9.637 -10.4941,-12.037 -1.52433,-2.4 -4.30479,-6.6546 -6.1788,-9.4546 -4.63415,-6.924 -5.4606,-8.6723 -7.61653,-16.1119 -3.44373,-11.8836 -8.45896,-56.7148 -9.83095,-87.879 -0.40525,-9.205 -1.04648,-23.6091 -1.42496,-32.0091 -0.37848,-8.4 -0.69802,-28.8539 -0.7101,-45.4531 -0.0121,-16.5993 -0.35929,-37.0538 -0.77158,-45.4545 -0.96192,-19.5999 -2.02384,-82.8965 -2.84906,-169.81962 -0.8341,-87.8601 -2.02865,-158.1806 -3.03296,-178.5455 -0.43398,-8.8 -0.57427,-19.4364 -0.31176,-23.6364 1.03341,-16.5335 3.34823,-46.8254 3.68943,-48.2803 0.19837,-0.8458 0.83259,-6.7742 1.40939,-13.1742 1.64514,-18.2539 6.99736,-48.7835 12.06161,-68.8007 2.46914,-9.7596 5.09614,-20.4571 5.83776,-23.7722 6.45083,-28.8357 46.08622,-91.887 69.89965,-111.1951 5.21604,-4.2292 24.16742,-24.6819 28.18131,-30.4138 12.57583,-17.9586 18.96664,-42.5356 21.46442,-82.5455 0.6118,-9.8 1.5924,-22.4 2.1791,-28 0.5867,-5.6 1.42896,-14.852 1.87169,-20.5601 0.44273,-5.708 1.12482,-12.0899 1.51575,-14.1818 0.39094,-2.0919 0.98765,-15.2581 1.32603,-29.2581 0.33837,-14 0.96768,-28.4 1.39845,-32 0.43078,-3.6 1.14533,-10.1454 1.58791,-14.5454 3.99262,-39.69456 9.15235,-63.14279 17.60382,-80.00004 4.45838,-8.89269 15.35397,-20.22483 23.62408,-24.57065 11.67669,-6.13592 13.02085,-6.34238 41.05759,-6.30651 13.72947,0.0176 27.33675,0.30709 30.23838,0.64338 10.13039,1.1741 17.92611,6.88374 21.75687,15.93486 1.12767,2.66441 2.93507,5.59549 4.01644,6.51351 6.75895,5.73797 12.56366,17.81664 14.85345,30.90757 2.24107,12.81241 3.92328,114.85278 2.05682,124.76348 -0.65218,3.4629 -1.45835,10.7144 -1.7915,16.1144 -0.33316,5.4 -0.95719,11.581 -1.38676,13.7356 -1.26177,6.3288 0.1994,89.4963 1.68168,95.7189 0.19057,0.8 0.73813,4.0727 1.21681,7.2727 0.47868,3.2 1.9996,9.8944 3.37983,14.8764 3.44451,12.4333 6.42831,16.5837 27.01193,37.5731 8.93919,9.1154 17.7653,18.5524 19.61357,20.9711 1.84826,2.4187 5.33437,6.7307 7.74691,9.5822 11.36089,13.428 20.14787,31.6229 32.79433,67.9063 3.6482,10.4669 8.95597,36.8435 10.82982,53.8182 0.64028,5.8 1.64589,14.1454 2.23471,18.5454 0.58883,4.4 1.39242,11.1091 1.78576,14.9091 0.39335,3.8 1.21015,10.1819 1.81512,14.1819 0.60496,4 1.09959,10.5454 1.09917,14.5454 -4.1e-4,4 0.48056,12.3455 1.06883,18.5455 0.58826,6.2 1.59818,18.9636 2.24425,28.3636 0.64608,9.4 1.51445,21.0182 1.92972,25.8182 0.44607,5.1559 0.82664,40.125 0.93,85.4545 0.16578,72.697 0.86859,122.5841 2.71515,192.72732 1.4881,56.5263 1.54269,99.0372 0.14229,110.7913 -1.33099,11.1713 -1.85312,21.6116 -3.11574,62.2996 -1.04047,33.5293 -1.68972,41.8799 -4.40195,56.6172 -4.78906,26.0219 -9.21704,43.0018 -13.49435,51.7464 -8.63988,17.6636 -10.20414,19.7984 -25.51241,34.8178 -15.35391,15.0641 -22.20515,18.5952 -42.35311,21.8283 -4.84706,0.7778 -9.13207,1.6115 -9.52226,1.8526 -0.87987,0.5438 -15.64226,2.3606 -24.43926,3.0077 -3.6,0.2648 -9.58832,1.0937 -13.30736,1.8419 -3.71905,0.7482 -13.3736,2.0176 -21.45455,2.821 -8.08095,0.8033 -18.29264,1.8438 -22.69264,2.3122 -4.4,0.4683 -16.01818,0.9261 -25.81818,1.0174 -9.8,0.091 -19.29091,0.5134 -21.09091,0.9382 -3.73354,0.881 -64.8057,0.9751 -71.27272,0.1097 z m 63.27752,-51.7302 c 1.48991,-0.4808 12.01524,-1.0442 25.44975,-1.3622 12.6,-0.2982 25.85454,-0.8959 29.45454,-1.3282 3.6,-0.4323 10.47273,-1.144 15.27273,-1.5815 4.8,-0.4376 12.40535,-1.4401 16.90078,-2.2278 4.49543,-0.7877 13.49543,-1.9286 20,-2.5355 6.50457,-0.6069 13.46285,-1.4259 15.46285,-1.8201 2,-0.3942 6.41819,-1.2005 9.81819,-1.7918 13.71544,-2.3851 12.71176,-1.9097 21.17821,-10.0322 12.53987,-12.0306 14.97992,-17.7244 21.4081,-49.9554 3.91097,-19.6097 4.2731,-24.1976 5.79803,-73.4546 0.74692,-24.1264 1.53691,-39.472 2.30253,-44.7273 1.35567,-9.3051 1.79304,-62.7662 0.65081,-79.5502 l -0.66231,-9.732 -5.15587,0.4959 c -2.83573,0.2728 -15.13769,0.8009 -27.33769,1.1737 -12.2,0.3727 -23.81818,0.9993 -25.81818,1.3924 -2,0.3931 -20.32727,0.8923 -40.72727,1.1092 -20.4,0.2169 -46.90909,0.9233 -58.90909,1.5696 -22.70183,1.2227 -31.98569,1.0916 -56,-0.791 -7.2,-0.5644 -20.78181,-1.2306 -30.18181,-1.4804 -24.60923,-0.6539 -59.11416,-2.3783 -65.38119,-3.2674 -2.95965,-0.4199 -5.49325,-0.6514 -5.63022,-0.5144 -0.13698,0.137 0.10022,12.9882 0.5271,28.5582 0.42688,15.57 1.04115,48.6001 1.36504,73.4001 0.65415,50.0886 1.48983,70.0651 4.12246,98.5454 3.50191,37.8843 4.51819,44.9195 6.96244,48.1973 0.96306,1.2915 2.62992,3.874 3.70414,5.739 3.29187,5.7148 5.36802,7.6154 11.60327,10.622 20.62344,9.9446 38.00017,14.6854 56.54514,15.4271 20.72687,0.829 44.58902,0.7896 47.27752,-0.078 z m 37.08611,-327.1199 c 7.4,-0.3783 27.36364,-0.7167 44.36364,-0.7519 22.79336,-0.047 33.00963,-0.3452 38.90909,-1.1347 4.4,-0.5889 13.22995,-1.0734 19.62211,-1.0767 10.88925,-0.01 31.69024,-1.0285 38.81725,-1.9086 l 3.16665,-0.3911 -0.57452,-31.39862 c -0.31599,-17.2693 -0.59899,-59.2169 -0.62888,-93.2169 -0.0299,-34 -0.13272,-63.5786 -0.22849,-65.7303 l -0.17413,-3.9121 -4.42172,0.5002 c -4.4234,0.5005 -18.75889,1.2276 -50.851,2.5792 -9.4,0.3959 -25.92727,1.2179 -36.72727,1.8267 -41.97643,2.3661 -88.5325,4.4713 -120.72727,5.4592 -28.69634,0.8805 -56.23081,-0.014 -92.20522,-2.9966 -5.51287,-0.457 -10.1491,-0.7052 -10.30272,-0.5514 -0.77994,0.7808 0.95821,185.58962 1.75009,186.07902 2.98984,1.8478 28.77343,3.6025 76.03058,5.1742 12.8,0.4258 28.01818,1.2151 33.81818,1.7541 11.30464,1.0507 36.34027,0.9247 60.36363,-0.3037 z M 432.67185,788.37538 c 21.26086,-0.6625 55.8579,-2.2597 80.36363,-3.7101 23.09882,-1.3671 36.86014,-2.0235 58.71345,-2.8006 11.4924,-0.4086 21.63786,-0.9231 22.54546,-1.1434 0.9076,-0.2202 8.68654,-0.7353 17.28654,-1.1446 19.4776,-0.927 23.2705,-1.3144 23.28108,-2.3779 0.0132,-1.3199 -2.09314,-30.3417 -2.99029,-41.2026 -0.44606,-5.4 -1.24509,-16.5272 -1.77562,-24.7272 -0.87675,-13.5512 -2.82429,-32.0295 -4.61749,-43.8105 -0.38117,-2.5042 -1.07698,-8.6441 -1.54624,-13.6441 -1.51702,-16.1636 -6.85288,-41.9249 -10.94897,-52.861 -1.97519,-5.2736 -4.60914,-12.4736 -5.85322,-16 -3.46877,-9.8325 -11.14725,-24.4372 -15.22431,-28.9572 -1.08242,-1.2 -3.82726,-4.614 -6.09966,-7.5867 -2.27239,-2.9727 -11.44149,-12.9546 -20.37578,-22.1818 -26.48947,-27.3582 -31.8651,-35.2269 -37.48597,-54.8708 -5.63014,-19.6763 -7.21183,-29.5047 -8.0314,-49.9061 -2.51275,-62.5499 -2.6058,-83.92 -0.41482,-95.2727 0.61757,-3.2 1.13427,-8.6469 1.14823,-12.1041 0.014,-3.4572 0.56139,-8.8572 1.21651,-12 1.24528,-5.9739 1.18574,-21.6466 -0.34004,-89.5053 -0.59302,-26.37413 -0.2133,-24.67368 -6.71689,-30.07967 l -3.22511,-2.68081 -13.25607,-0.4053 -13.25606,-0.4053 -1.34494,1.95386 c -5.15866,7.49418 -9.3359,27.7564 -13.22213,64.13572 -0.40594,3.8 -0.90589,8.3818 -1.11101,10.1818 -0.20512,1.8 -0.66381,14.5636 -1.01931,28.3636 -0.43474,16.8755 -1.12962,29.1391 -2.12229,37.4545 -0.81175,6.8 -1.82545,16.6182 -2.25268,21.8182 -0.42722,5.2 -1.08546,12.4 -1.46275,16 -0.37729,3.6 -1.03565,12.9273 -1.46302,20.7273 -1.3276,24.2304 -3.18507,37.1316 -8.42827,58.5392 -5.00745,20.4452 -10.85589,34.0006 -21.3417,49.4656 -7.51514,11.0838 -35.67043,41.7345 -39.43385,42.929 -2.59535,0.8237 -15.53606,16.7324 -22.60221,27.7861 -3.99526,6.2499 -8.4985,13.1856 -10.0072,15.4127 -2.63266,3.8862 -15.71089,29.3521 -17.39287,33.8674 -5.13368,13.7812 -16.55029,69.6789 -18.29329,89.567 -0.41525,4.7381 -1.22062,12.7057 -1.78971,17.7057 -2.3278,20.4521 -3.49385,42.2575 -2.99299,55.9702 0.26968,7.3836 0.63473,13.5692 0.81122,13.7457 0.17648,0.1764 4.66262,0.5799 9.96919,0.8965 5.30657,0.3166 15.21194,0.949 22.01194,1.4054 32.12453,2.156 48.87478,2.456 81.09091,1.4523 z M 988.0756,1387.2615 c -17.5382,-1.9051 -26.478,-10.1397 -27.2316,-25.0835 -0.4338,-8.6029 1.3637,-13.2995 7.4006,-19.3363 6.9037,-6.9038 10.223,-7.8927 24.0636,-7.1687 13.934,0.7287 46.6564,0.6153 49.2655,-0.1708 l 1.9926,-0.6004 0.2653,-73.4528 c 0.257,-71.1772 0.7187,-90.3254 2.9719,-123.271 0.5882,-8.6 1.2711,-21.2 1.5177,-28 0.2465,-6.8 0.7619,-15.309 1.1453,-18.909 2.1407,-20.1027 2.78,-50.4367 1.8494,-87.7614 l -0.6285,-25.21582 -8.4624,-5.6216 c -4.6542,-3.0919 -11.0804,-8.1246 -14.2804,-11.1837 -3.2,-3.0592 -9.2545,-8.4814 -13.4546,-12.0495 -14.7092,-12.4961 -64.19599,-64.0134 -72.91024,-75.9021 -1.64655,-2.2462 -4.84626,-6.2114 -7.11062,-8.8114 -8.9944,-10.3279 -17.92618,-27.8121 -26.24967,-51.3845 -7.12102,-20.1673 -7.51011,-52.3407 -0.95826,-79.2524 6.53506,-26.843 10.0227,-40.2578 11.60473,-44.6358 0.93957,-2.6 3.2736,-9.1455 5.18684,-14.5455 2.19934,-6.2075 7.45411,-17.7081 14.28909,-31.2727 5.94582,-11.8 11.74022,-23.7455 12.87636,-26.5455 1.87247,-4.6145 5.19557,-11.65 19.23647,-40.7272 2.5111,-5.2 6.8189,-14.3366 9.5731,-20.3035 3.857,-8.3561 5.8797,-11.7985 8.8026,-14.9812 16.0909,-17.5211 44.8314,-6.3168 44.8037,17.4665 -0.01,6.244 -1.3449,10.1051 -8.3554,24.1179 -2.3337,4.6649 -4.2432,8.701 -4.2432,8.9692 0,0.2681 -4.4292,9.4856 -9.8426,20.4833 -5.4134,10.9977 -10.9865,22.8343 -12.3848,26.3036 -1.3982,3.4693 -4.3473,9.7442 -6.5535,13.9442 -7.1804,13.6695 -16.7884,33.7248 -18.118,37.8181 -0.7145,2.2 -2.525,7.1091 -4.0233,10.9091 -2.3362,5.9252 -6.1032,19.8208 -10.4898,38.695 -1.7761,7.6418 -2.2907,7.12 7.0483,7.1457 4.5,0.012 10.6364,0.3763 13.6364,0.8088 12.6766,1.8277 78.2531,0.4632 128.3637,-2.6708 17.8112,-1.114 72.5301,-2.5034 99.1137,-2.5167 12.7204,-0.01 14.8103,-0.1643 15.1877,-1.1478 0.2407,-0.6273 -1.8713,-8.2364 -4.6932,-16.9091 -2.822,-8.6728 -5.8482,-18.2232 -6.7249,-21.2232 -0.8767,-3 -2.4265,-7.091 -3.444,-9.091 -1.0175,-2 -3.3915,-7.4 -5.2755,-12 -1.884,-4.6 -6.1105,-14.2545 -9.3921,-21.4545 -3.2816,-7.2 -7.136,-16.5273 -8.5652,-20.7273 -3.3283,-9.7809 -8.8289,-22.4267 -16.9244,-38.9091 -3.5363,-7.2 -6.6686,-13.909 -6.9606,-14.909 -0.292,-1 -2.3903,-5.5862 -4.6628,-10.1915 -6.8945,-13.9716 -7.9854,-19.5333 -5.3576,-27.3154 6.3542,-18.817 29.2776,-24.4594 43.1002,-10.6087 3.4838,3.4908 10.7645,16.8533 14.9228,27.3883 1.1052,2.8 2.7783,6.5636 3.718,8.3636 6.1749,11.8277 17.0691,36.5467 20.6739,46.9091 2.6165,7.5213 5.8848,15.1381 13.1067,30.5455 1.6874,3.6 3.9849,9 5.1056,12 1.1206,3 3.3546,8.2415 4.9643,11.6478 1.6098,3.4063 3.9405,9.7881 5.1796,14.1818 1.239,4.3937 4.0164,13.2249 6.172,19.6249 9.281,27.5562 10.2542,32.6357 9.6146,50.1818 -1.0217,28.0258 -13.6455,64.0486 -30.5837,87.2727 -17.9967,24.6755 -49.5218,58.7219 -70.8386,76.5044 -3.2637,2.7226 -9.7206,8.4622 -14.3486,12.7546 -11.4615,10.6306 -34.8597,26.8314 -49.2236,34.0822 -2.471,1.2475 -5.7462,3.0975 -7.278,4.1112 l -2.7851,1.8431 0.3985,5.5341 c 0.9335,12.9643 1.6611,64.72032 0.9928,70.62502 -0.3848,3.4 -0.694,10.1091 -0.6872,14.9091 0.01,4.8 -0.4574,13.8 -1.0315,20 -0.5741,6.2 -1.3898,18.4727 -1.8125,27.2727 -0.4226,8.8 -1.2462,24.0182 -1.8301,33.8182 -2.8731,48.2185 -3.5075,84.0301 -2.4933,140.7273 0.6645,37.1393 1.0263,43.9288 2.3655,44.3821 0.4631,0.1568 11.642,0.3862 24.842,0.5099 l 24,0.2248 4.3128,2.0068 c 19.1611,8.9157 21.6607,33.6006 4.5885,45.3117 -7.5601,5.186 -9.9312,5.6151 -27.0831,4.9016 -20.809,-0.8656 -21.5516,-0.8478 -80.3636,1.9215 -20.2681,0.9544 -50.1448,0.7784 -60.5963,-0.3568 z m 100.8168,-464.35622 c 0.9819,0 19.01,-11.2968 25.9613,-16.2678 3.4,-2.4315 9.6838,-7.755 13.9641,-11.8299 4.2802,-4.0749 10.9893,-10.0122 14.909,-13.1941 25.3478,-20.5753 65.5315,-67.9401 71.1501,-83.8648 l 1.0032,-2.8434 -13.2405,0.01 c -22.9184,0.017 -80.4401,1.4055 -91.0586,2.1978 -41.131,3.0693 -115.3324,4.5584 -134.1819,2.6926 -9.7081,-0.9609 -18.1818,-0.9607 -18.1818,4e-4 0,1.0481 6.8854,17.6259 9.3881,22.6035 1.5581,3.099 4.3242,7.2931 6.1468,9.3203 1.8226,2.0272 5.5365,6.4999 8.2531,9.9392 10.3408,13.0921 52.9736,57.4995 65.3029,68.0211 4,3.4136 9.5637,8.42 12.3637,11.1255 2.8,2.7055 6.9973,6.2054 9.3273,7.7775 l 4.2364,2.8584 7.0085,-4.2731 c 3.8546,-2.3502 7.2963,-4.273 7.6483,-4.273 z"
       id="path369" />
  </g>
</svg>
