<?xml version="1.0" encoding="UTF-8" standalone="no"?>
<!-- Created with Inkscape (http://www.inkscape.org/) -->

<svg
   version="1.1"
   id="svg9"
   width="1489.4545"
   height="1489.4545"
   viewBox="0 0 1489.4545 1489.4545"
   sodipodi:docname="image0.svg"
   inkscape:version="1.1.2 (b8e25be833, 2022-02-05)"
   xmlns:inkscape="http://www.inkscape.org/namespaces/inkscape"
   xmlns:sodipodi="http://sodipodi.sourceforge.net/DTD/sodipodi-0.dtd"
   xmlns="http://www.w3.org/2000/svg"
   xmlns:svg="http://www.w3.org/2000/svg">
  <defs
     id="defs13" />
  <sodipodi:namedview
     id="namedview11"
     pagecolor="#ffffff"
     bordercolor="#666666"
     borderopacity="1.0"
     inkscape:pageshadow="2"
     inkscape:pageopacity="0.0"
     inkscape:pagecheckerboard="0"
     showgrid="false"
     inkscape:zoom="16.736329"
     inkscape:cx="566.31296"
     inkscape:cy="525.11516"
     inkscape:window-width="1920"
     inkscape:window-height="1001"
     inkscape:window-x="-9"
     inkscape:window-y="-9"
     inkscape:window-maximized="1"
     inkscape:current-layer="g15" />
  <g
     inkscape:groupmode="layer"
     inkscape:label="Image"
     id="g15">
    <path
       style="fill:#000000;stroke-width:0.727273"
       d="m 1165.5828,673.72202 c -30.1809,-0.73022 -65.6672,-2.64578 -71.858,-3.87892 -15.0992,-3.00757 -27.239,-11.9087 -31.3965,-23.02046 -3.0976,-8.27925 -3.775,-17.29734 -3.5235,-46.91211 0.1279,-15.06666 0.01,-27.62263 -0.2757,-27.90217 -0.2794,-0.27953 -3.7158,-0.47017 -7.6363,-0.42365 -9.6082,0.11401 -14.1464,-0.88587 -17.2329,-3.79684 -5.1054,-4.81501 -5.3484,-13.20135 -0.5225,-18.02733 5.7883,-5.78823 15.5582,-6.26109 21.6488,-1.0478 2.6192,2.24187 2.962,2.34976 4.2765,1.34553 3.4048,-2.60106 11.938,-6.06299 19.1233,-7.75835 9.7345,-2.29687 18.7863,-3.29013 35.215,-3.86417 l 12.9091,-0.45107 0.016,-1.88557 c 0.022,-2.55504 2.3126,-7.34651 4.4542,-9.31553 2.4804,-2.28054 7.4006,-3.84277 12.1028,-3.84277 7.7375,0 13.189,5.28095 13.2292,12.81512 l 0.016,2.99694 5.2727,0.48056 c 21.5003,1.95957 44.9952,7.70698 53.5298,13.09468 3.6789,2.32233 3.9877,2.32764 5.1858,0.0891 1.534,-2.86631 6.1744,-5.65314 10.0301,-6.02363 9.8233,-0.94389 16.9548,5.38596 15.9647,14.17012 -0.8556,7.59098 -8.2169,13.27916 -17.2044,13.29421 -2.6283,0.004 -6.006,0.21086 -7.506,0.45879 l -2.7273,0.45079 v 6.42098 c 0,9.94019 -2.0946,39.58982 -3.2835,46.47961 -2.5653,14.86604 -7.7934,26.98877 -14.5829,33.81496 -7.4647,7.50498 -18.2848,12.96207 -24.9374,12.57712 -1.4579,-0.0844 -6.0871,-0.23653 -10.2871,-0.33814 z m 17.2461,-14.44991 c 7.673,-3.82358 13.7853,-11.1745 16.9569,-20.39278 3.5697,-10.37568 5.797,-30.91378 5.797,-53.45554 v -10.63276 l -19.8182,-0.54603 c -10.9,-0.30032 -30.0925,-0.4984 -42.6501,-0.44017 -20.5765,0.0954 -55.0995,-0.80738 -67.8953,-1.77549 l -4.9091,-0.37141 0.01,21.27781 c 0.01,28.2559 1.4519,44.97273 4.3842,50.76503 3.2721,6.46376 12.9166,12.39014 23.0313,14.15241 3.1181,0.54325 16.1113,1.33418 28.8739,1.75764 12.7627,0.42345 23.3718,0.93684 23.5758,1.14086 0.204,0.20402 6.7976,0.37095 14.6524,0.37095 13.8422,0 14.3956,-0.0569 17.9949,-1.85052 z m 49.1653,-97.16744 c 3.1168,-1.64052 3.5232,-3.52749 0.7597,-3.52749 -1.9074,0 -3.8309,1.71468 -3.8752,3.45454 -0.029,1.13323 1.0531,1.15856 3.1155,0.073 z m -28.0215,-0.50685 c 0.6009,-0.38125 -1.3496,-1.28549 -5.4545,-2.52875 -21.8011,-6.60288 -43.4561,-8.96334 -75.8445,-8.2673 -22.9643,0.49352 -34.9709,1.43616 -43.3431,3.40285 -6.2333,1.46424 -13.5897,4.39454 -14.4249,5.74591 -0.3627,0.58692 6.7368,0.82932 25.9069,0.88459 60.6877,0.17496 97.4348,0.52784 97.8466,0.93963 0.6617,0.66174 14.239,0.50486 15.3135,-0.17693 z m -155.9045,-1.4689 c 0.7179,-1.1616 -2.2934,-3.12256 -4.4211,-2.87899 -2.9971,0.34313 -2.6668,2.31171 0.4812,2.86787 1.4,0.24735 2.7715,0.4928 3.048,0.54546 0.2763,0.0526 0.6777,-0.1878 0.8919,-0.53434 z m 94.8188,-23.39951 c 1.2489,-1.99969 0.4803,-2.98348 -1.8942,-2.42464 -2.5595,0.60236 -3.3382,1.37189 -2.8021,2.76898 0.6244,1.62727 3.6014,1.409 4.6963,-0.34434 z m -713.3041,132.3602 c -2.6,-0.30328 -8.32727,-0.77667 -12.72727,-1.05199 -9.25883,-0.57933 -11.2815,-1.0878 -15.84844,-3.98406 -7.63998,-4.84514 -7.62587,-4.69312 -7.83733,-84.38547 -0.17144,-64.60562 -0.14602,-65.9668 1.38014,-73.88527 3.12653,-16.22198 4.9009,-19.85558 13.71744,-28.09094 10.2308,-9.55641 10.20044,-9.51575 11.39984,-15.26842 0.60785,-2.91546 1.30036,-9.71901 1.53891,-15.11901 1.20982,-27.38698 3.04907,-42.03196 5.94756,-47.35745 2.34574,-4.30988 4.99972,-6.07294 10.71813,-7.1201 5.13526,-0.94038 13.96066,-0.26861 16.28628,1.23967 0.91639,0.59433 2.52798,2.55116 3.5813,4.34852 2.80567,4.7875 3.08131,10.73522 1.81257,39.11059 -0.60906,13.62167 -0.8884,25.63922 -0.62073,26.70568 0.26767,1.06646 2.97772,4.48509 6.02234,7.59696 9.88023,10.09844 16.77674,22.41151 19.25906,34.38522 1.28828,6.21418 1.58106,10.07439 1.57205,20.72727 -0.0985,116.42178 -0.24545,121.30538 -3.90657,129.81589 -1.75606,4.08207 -5.82258,8.12511 -9.91544,9.85821 -1.86933,0.79156 -6.68287,1.36858 -15.10711,1.81099 -6.8,0.35711 -14.65455,0.7766 -17.45455,0.9322 -2.8,0.1556 -7.21818,0.0348 -9.81818,-0.26849 z m 34.21112,-12.33476 c 7.33879,-1.03733 8.79445,-3.34418 10.13359,-16.05911 0.78818,-7.48376 0.86185,-38.97792 0.0994,-42.4822 -0.4279,-1.96657 -0.72433,-2.16322 -3.00486,-1.99329 -1.39157,0.10368 -16.93013,0.35111 -34.53013,0.54981 l -32,0.36131 -0.21173,19.45017 c -0.19259,17.69192 0.53037,33.68233 1.65538,36.61409 0.79373,2.06842 5.23317,3.56047 10.76285,3.61727 2.88643,0.0297 6.72077,0.33887 8.52077,0.68717 3.80363,0.73598 31.94145,0.19239 38.57476,-0.74522 z m -4.62172,-71.39559 14.68032,-0.88132 -0.13486,-6.58675 c -0.0742,-3.6227 0.15753,-12.06856 0.51489,-18.76856 l 0.64975,-12.18182 -16.64975,-0.014 c -15.50397,-0.013 -35.2115,-0.76783 -48.46793,-1.85641 l -5.63636,-0.46284 v 19.623 c 0,14.91627 0.22026,19.80582 0.91831,20.38514 0.50507,0.41917 2.22325,0.89515 3.81818,1.05771 6.74982,0.68798 36.73327,0.50072 50.30745,-0.3142 z m 15.5782,-50.46584 c 1.06253,-0.65668 -0.0374,-18.53037 -1.62724,-26.44126 -2.05165,-10.20921 -9.21482,-22.54716 -17.65907,-30.4163 -1.8218,-1.69773 -4.21765,-4.47955 -5.3241,-6.18181 -2.00292,-3.08149 -2.01173,-3.15082 -2.01173,-15.82232 0,-7 0.29664,-21.14115 0.65922,-31.42477 0.49175,-13.94771 0.44517,-18.9554 -0.18337,-19.71275 -0.92383,-1.11314 -9.30793,-1.63052 -10.79399,-0.66608 -2.09537,1.35989 -3.15568,8.32415 -4.62066,30.34905 -2.44234,36.71866 -2.56177,37.2092 -10.99426,45.15497 -7.57956,7.14206 -11.57608,11.38645 -12.61718,13.39974 -3.65488,7.06775 -7.62593,37.88289 -5.14698,39.94024 0.75762,0.62877 19.125,1.77441 40.42449,2.52142 9.05567,0.3176 29.00407,-0.14959 29.89487,-0.70013 z M 551.85927,664.81 c -6.16935,-0.74478 -8.44418,-4.83395 -5.07319,-9.11945 1.53298,-1.94887 1.70847,-1.98632 8.12848,-1.73444 l 6.56168,0.25743 0.24184,-10.54546 c 0.13301,-5.8 0.57762,-17.41818 0.98802,-25.81818 0.4104,-8.4 0.94498,-21.17723 1.18795,-28.39384 l 0.44179,-13.1211 -2.10375,-1.37245 c -7.39775,-4.82616 -21.19804,-20.8929 -25.31818,-29.47624 -2.83901,-5.91441 -2.96638,-6.48069 -2.94426,-13.09091 0.0198,-5.90289 0.41959,-8.18009 2.74552,-15.63636 5.42648,-17.39586 11.47547,-32.91126 13.39733,-34.36364 2.1259,-1.60657 5.74856,-1.11468 7.41761,1.00717 2.02293,2.57173 1.92087,3.75838 -0.95326,11.08448 -5.71004,14.55475 -10.63032,29.29429 -10.63032,31.84494 0,0.77488 2.47543,0.96346 12.18182,0.92802 15.67706,-0.0572 42.25556,-1.05956 42.81045,-1.61445 0.45735,-0.45735 -1.35475,-6.65397 -3.05623,-10.45098 -0.56482,-1.26045 -1.02695,-2.52862 -1.02695,-2.81815 0,-0.28953 -0.80783,-2.36734 -1.79519,-4.61736 -4.48313,-10.21632 -8.38662,-21.3693 -8.38662,-23.96211 0,-6.27091 7.75424,-7.72634 10.48661,-1.96829 0.63236,1.33261 1.14975,2.71387 1.14975,3.06947 0,0.3556 1.66009,4.72433 3.68909,9.70827 2.029,4.98394 5.20824,13.31626 7.06497,18.51626 3.26619,9.14731 3.37674,9.72846 3.40182,17.88363 0.0259,8.40994 0.0194,8.44216 -2.8808,14.18182 -2.33278,4.61682 -4.48685,7.34553 -10.90909,13.81929 -4.87179,4.91088 -10.27846,9.52311 -13.82054,11.7898 -10.02366,6.41446 -8.99788,4.26969 -9.80803,20.50728 -0.73378,14.70702 -2.02512,45.81736 -2.36221,56.90919 l -0.19339,6.36375 6,-1.1e-4 c 5.03039,-9e-5 6.23505,0.23495 7.45454,1.45444 2.02576,2.02575 1.91438,5.85991 -0.22869,7.87323 -1.61759,1.51965 -2.23447,1.57732 -15.81818,1.47891 -7.77422,-0.0563 -15.8924,-0.31456 -18.04039,-0.57386 z m 22.62179,-100.5569 c 6.05877,-3.67737 9.94078,-6.78104 16.27029,-13.00811 5.25587,-5.17079 10.47255,-12.54196 9.53773,-13.47679 -0.19093,-0.19092 -12.33247,-0.11712 -26.98121,0.16401 -29.1355,0.55915 -27.78624,0.30117 -25.43377,4.8629 2.60806,5.05734 19.99906,23.78207 22.08811,23.78207 0.37936,0 2.41284,-1.04584 4.51885,-2.32408 z"
       id="path99" />
  </g>
</svg>
