<?xml version="1.0" encoding="UTF-8" standalone="no"?>
<!-- Created with Inkscape (http://www.inkscape.org/) -->

<svg
   version="1.1"
   id="svg244"
   width="1489.4545"
   height="1489.4545"
   viewBox="0 0 1489.4545 1489.4545"
   sodipodi:docname="image2.svg"
   inkscape:version="1.1.2 (b8e25be833, 2022-02-05)"
   xmlns:inkscape="http://www.inkscape.org/namespaces/inkscape"
   xmlns:sodipodi="http://sodipodi.sourceforge.net/DTD/sodipodi-0.dtd"
   xmlns="http://www.w3.org/2000/svg"
   xmlns:svg="http://www.w3.org/2000/svg">
  <defs
     id="defs248" />
  <sodipodi:namedview
     id="namedview246"
     pagecolor="#ffffff"
     bordercolor="#666666"
     borderopacity="1.0"
     inkscape:pageshadow="2"
     inkscape:pageopacity="0.0"
     inkscape:pagecheckerboard="0"
     showgrid="false"
     inkscape:zoom="0.5424805"
     inkscape:cx="835.05306"
     inkscape:cy="913.39689"
     inkscape:window-width="1920"
     inkscape:window-height="1001"
     inkscape:window-x="-9"
     inkscape:window-y="-9"
     inkscape:window-maximized="1"
     inkscape:current-layer="g250" />
  <g
     inkscape:groupmode="layer"
     inkscape:label="Image"
     id="g250">
    <path
       style="fill:#000000;stroke-width:0.727273"
       d="m 755.42002,949.11195 c -6,-0.3053 -16.96364,-0.922 -24.36364,-1.3707 -7.4,-0.4485 -21.53575,-1.1442 -31.41278,-1.5461 -9.87703,-0.4017 -21.65885,-1.2112 -26.18182,-1.7987 -4.52297,-0.5875 -12.47812,-1.412 -17.67812,-1.832 -5.2,-0.42 -11.41819,-1.2506 -13.81819,-1.8458 -2.43624,-0.6042 -10.9489,-1.3832 -19.27272,-1.7636 -8.2,-0.3748 -17.85455,-1.0182 -21.45455,-1.4297 -3.6,-0.4115 -9.81818,-1.1181 -13.81818,-1.5702 -16.25807,-1.8379 -39.44593,-10.5625 -73.44271,-27.6335 -39.90844,-20.0395 -41.28401,-20.979 -60.08786,-41.0399 -14.04496,-14.9839 -17.88843,-21.1458 -26.20969,-42.0195 -9.27832,-23.2745 -11.30805,-30.0809 -14.04002,-47.0812 -0.99722,-6.2054 -2.80991,-16.1872 -4.02822,-22.1819 -1.88589,-9.2794 -2.31932,-13.5473 -2.91647,-28.7174 -0.38576,-9.8 -1.11681,-23.38177 -1.62456,-30.18177 -0.62105,-8.3173 -0.8807,-26.2877 -0.79338,-54.9091 0.11817,-38.7291 0.60481,-55.1488 2.38176,-80.36365 0.34862,-4.94691 0.33271,-12.29905 -0.0367,-16.97302 -0.77421,-9.79498 0.21884,-33.79927 1.82923,-44.21694 1.23391,-7.98211 2.48015,-17.2992 2.33544,-17.46 -0.0517,-0.0575 -13.67588,-0.63607 -30.27588,-1.28574 -34.42289,-1.34713 -37.25958,-1.66073 -49.56492,-5.47906 -16.27451,-5.05004 -27.9186,-10.75694 -33.88031,-16.60516 -25.57275,-25.08588 -21.15325,-58.77366 10.48599,-79.92988 19.92709,-13.32465 28.47107,-16.04371 46.26783,-14.72458 11.20148,0.83025 14.7142,1.74233 29.95643,7.77796 15.39062,6.0944 21.74502,10.0496 32.09295,19.97586 l 5.90343,5.6629 8.64202,-8.59527 c 9.48874,-9.43731 16.50307,-15.25578 23.18749,-19.23418 9.26088,-5.51185 34.69192,-16.40313 46.18181,-19.77818 6.2,-1.82116 15.03637,-4.45651 19.63637,-5.85629 4.6,-1.39978 12.61818,-3.37586 17.81818,-4.39127 5.2,-1.01542 12.72727,-2.63222 16.72727,-3.59288 4,-0.96065 10.05454,-2.09469 13.45454,-2.52007 19.29155,-2.41338 26.10332,-3.07302 38.29333,-3.70822 7.4152,-0.3864 13.69634,-0.83418 13.95807,-0.99512 0.26173,-0.16095 6.69406,-0.67128 14.29406,-1.13411 7.6,-0.46277 22.16363,-1.5112 32.36363,-2.32982 10.2,-0.81862 24.01837,-1.65491 30.7075,-1.8584 8.23709,-0.25062 12.39822,-0.65455 12.8939,-1.25186 0.40252,-0.48501 1.07333,-3.28945 1.49068,-6.23214 0.83369,-5.8783 5.81711,-18.96089 9.64042,-25.30828 1.29713,-2.15345 5.64194,-7.07457 9.65515,-10.9358 9.20284,-8.85435 15.67412,-12.56354 30.79594,-17.65155 l 11.36186,-3.82291 12.39586,-0.30675 c 18.70363,-0.46287 27.26378,1.43634 45.24749,10.03895 10.85956,5.19472 14.88247,8.12465 20.46334,14.90365 11.84669,14.39017 16.03222,23.90943 16.06247,36.53156 0.0153,6.33527 -2.08007,5.57673 19.64902,7.11316 49.80698,3.5216 88.14499,11.73608 128.76214,27.58902 7.7808,3.03687 15.947,6.2216 18.147,7.07724 7.5499,2.93622 14.922,6.988 24.3636,13.39062 8.168,5.5389 13.9619,9.7981 30.9009,22.71607 1.7955,1.36923 5.5591,4.51214 8.3636,6.98414 2.8046,2.47208 6.5719,5.61368 8.3719,6.98131 3.2438,2.46473 6.1349,4.8184 13.7747,11.21382 4.8174,4.0328 4.0202,4.07222 8.7984,-0.43491 3.5639,-3.36174 20.4546,-17.30022 31.703,-26.16189 9.1636,-7.2192 22.2725,-14.56182 32.633,-18.27862 30.3379,-10.88363 65.315,-2.20392 78.126,19.38728 17.7495,29.91432 2.8081,70.70784 -31.9442,87.21467 -22.0511,10.47397 -36.3057,12.85833 -76.8728,12.85833 h -20.4269 l -0.4876,12.18182 c -0.2681,6.7 -0.7852,16.27272 -1.149,21.27272 -0.8522,11.71222 -1.9892,38.11957 -2.5345,58.86267 -0.2358,8.9744 -0.5968,16.589 -0.8021,16.9212 -0.2053,0.3322 -0.6649,10.1713 -1.0213,21.8646 -0.3563,11.6933 -0.9889,22.6475 -1.4058,24.3426 -1.4222,5.7839 -4.3909,31.6348 -4.3964,38.2843 0,3.6486 -0.3438,8.7187 -0.7573,11.2669 -1.4067,8.6691 -2.8992,21.52537 -3.6056,31.05757 -0.3875,5.2299 -1.1969,12.1038 -1.7985,15.2752 -0.6016,3.1714 -1.571,10.6742 -2.1543,16.6729 -2.2101,22.731 -6.4337,40.0453 -13.6599,55.9975 -1.9932,4.4 -4.0422,9.1454 -4.5535,10.5454 -6.4597,17.6884 -28.1034,52.5354 -39.983,64.3738 -14.604,14.5534 -34.1459,25.9219 -63.30065,36.8253 -22.9904,8.598 -65.58413,13.5642 -117.45452,13.6945 -15,0.038 -35.29091,0.4047 -45.09091,0.8155 -23.71949,0.9946 -68.24153,1.3573 -81.81818,0.6666 z m 69.0909,-52.3968 c 9.2,-0.3778 31.78182,-0.8585 50.18182,-1.0682 46.07454,-0.5254 63.79585,-1.726 86.54545,-5.8638 16.35256,-2.9744 17.47166,-3.3176 33.39126,-10.2425 21.98285,-9.5623 28.67715,-14.4401 38.33605,-27.9329 7.9139,-11.055 19.3544,-31.2798 21.3715,-37.7806 0.3102,-1 2.2738,-5.5818 4.3634,-10.1818 6.3558,-13.9914 9.5445,-26.8736 10.8913,-44 0.2517,-3.2 1.0678,-9.7454 1.8137,-14.5454 0.746,-4.8 1.5721,-11.6728 1.836,-15.2728 0.4886,-6.6652 2.6045,-24.97007 3.9511,-34.18177 0.4093,-2.8 0.7467,-8.0363 0.7498,-11.6363 0.01,-6.6327 1.1184,-16.5941 3.697,-33.0909 0.7999,-5.1179 1.4211,-12.7462 1.4214,-17.4546 3e-4,-4.6 0.4688,-15.5636 1.0412,-24.3636 0.5724,-8.8 1.2489,-24.3455 1.5033,-34.54548 0.2544,-10.2 0.76,-23.45454 1.1236,-29.45454 0.3636,-6 0.9839,-17.8768 1.3786,-26.39294 0.3946,-8.51608 0.8909,-15.7643 1.1028,-16.10713 0.2118,-0.34277 0.185,-1.62437 -0.06,-2.84793 -0.3909,-1.95433 -0.8102,-2.27585 -3.4513,-2.64633 -3.2603,-0.45731 -55.0731,-0.92531 -157.91558,-1.42625 -36,-0.17535 -73.8,-0.65811 -84,-1.0728 -10.2,-0.41469 -28.52727,-1.09098 -40.72727,-1.50284 -12.2,-0.41185 -31.34545,-1.07243 -42.54545,-1.468 -11.2,-0.39556 -30.6996,-1.06051 -43.33244,-1.4776 -12.63285,-0.41709 -26.54194,-1.06625 -30.90909,-1.44269 -4.36716,-0.37636 -25.28574,-0.85862 -46.48574,-1.07171 -37.66192,-0.37854 -47.2773,-0.72378 -81.41708,-2.92312 -9.1794,-0.59135 -21.12485,-1.08364 -26.54546,-1.09397 -5.4206,-0.0102 -12.96473,-0.312 -16.76473,-0.67032 -3.8,-0.3584 -16.74443,-0.88306 -28.7654,-1.16597 l -21.85631,-0.5144 -0.83955,5.00291 c -0.46175,2.75156 -1.19908,7.29382 -1.63851,10.09382 -0.43944,2.8 -1.30899,8.13193 -1.93236,11.84873 -0.85401,5.092 -1.12064,11.90443 -1.08163,27.63636 0.0285,11.4832 -0.25924,26.27854 -0.63936,32.87854 -2.00963,34.89316 -2.79155,94.72926 -1.51585,115.99996 0.45581,7.6 1.13596,22.3846 1.51145,32.85467 0.58916,16.4277 0.98303,20.5667 2.87424,30.203 1.20534,6.1416 2.87167,15.4116 3.70295,20.5999 2.0428,12.7497 2.98539,16.1471 8.46886,30.5243 8.19602,21.4891 8.96518,22.7778 20.96927,35.1344 12.71233,13.0854 9.58725,11.1826 54.56038,33.2193 18.32355,8.9785 20.30927,9.7954 34.18182,14.0626 10.41848,3.2047 20.98129,4.4957 48.72727,5.9553 8.43844,0.4439 16.36648,1.2869 20.36363,2.1652 3.6,0.791 8.67273,1.4497 11.27273,1.4637 2.6,0.014 7.83637,0.5051 11.63637,1.0913 6.84379,1.0558 12.29443,1.4167 56.72727,3.7563 46.59774,2.4537 54.18661,2.5313 92.72727,0.9489 z m 371.84808,-452.009 c 3.899,-0.35789 13.0835,-3.28814 19.0611,-6.08145 6.9695,-3.2568 12.5355,-10.64771 9.0314,-11.99236 -5.3558,-2.0552 -16.8452,1.22102 -26.9863,7.6952 -4.31,2.75156 -14.7724,10.68181 -14.7724,11.19716 0,0.316 3.7564,0.091 13.6662,-0.81855 z m -135.0968,-1.39556 c -1.4347,-1.72873 -22.7497,-17.73389 -32.0936,-24.09862 -8.7427,-5.95527 -11.3245,-7.22865 -25.7485,-12.69963 -4.40005,-1.66888 -10.86415,-4.14117 -14.36475,-5.49389 -11.7316,-4.5336 -46.02763,-13.95608 -59.08988,-16.23426 -6.91077,-1.20538 -25.62626,-3.54058 -32,-3.99287 -18.64575,-1.32305 -35.47542,-2.84604 -44.72727,-4.04742 -34.02699,-4.41869 -118.04419,-3.43323 -189.09091,2.21782 -5,0.39767 -16.12727,1.1976 -24.72727,1.7776 -32.37087,2.18305 -38.54613,2.66727 -52.36363,4.10625 -7.8,0.8123 -17.29091,2.24226 -21.09091,3.17768 -3.8,0.93542 -10.73028,2.37694 -15.40061,3.20334 -4.67034,0.82648 -12.36125,2.68189 -17.09091,4.12313 -4.72967,1.44124 -12.88082,3.87862 -18.11366,5.41636 -5.99632,1.76219 -14.58405,5.15411 -23.22542,9.17353 -13.18715,6.13375 -13.96398,6.61484 -20.32666,12.58713 l -6.61551,6.2096 22.93184,0.84305 c 60.00315,2.20604 71.84933,2.7776 97.03429,4.68211 5.55634,0.42015 27.64725,0.89716 49.0909,1.05993 21.44365,0.16283 43.57028,0.62749 49.17028,1.03251 5.6,0.40509 19.83636,1.05934 31.63636,1.45389 11.8,0.39454 29.96364,1.06262 40.36364,1.48451 68.13105,2.76407 136.31206,4.45629 166.54545,4.1336 13.2,-0.14095 35.78181,-0.0538 50.18178,0.19345 56.39865,0.96866 90.07825,0.85193 89.11495,-0.3088 z M 376.8471,427.70157 c -4.09264,-3.45505 -19.61115,-9.81643 -25.87208,-10.60552 -3.46984,-0.43731 -4.0645,-0.26088 -8.91815,2.64632 -6.08344,3.64379 -6.05656,3.6904 3.90861,6.77615 4.72089,1.46182 8.28709,1.92305 18.90909,2.4456 7.2,0.35418 13.40582,0.69331 13.79072,0.7536 0.38488,0.0604 -0.4333,-0.84706 -1.81819,-2.01615 z M 813.59485,321.34936 c 1.01964,-1.01964 -4.14327,-4.92284 -9.44756,-7.14247 -11.65295,-4.87618 -22.03971,-4.52517 -33.18262,1.12138 -3.13993,1.59112 -6.45374,4.77767 -6.45374,6.20582 0,0.66247 48.41898,0.48029 49.08392,-0.18473 z"
       id="path254" />
  </g>
</svg>
