<?xml version="1.0" encoding="UTF-8" standalone="no"?>
<!-- Created with Inkscape (http://www.inkscape.org/) -->

<svg
   version="1.1"
   id="svg129"
   width="1489.4545"
   height="1489.4545"
   viewBox="0 0 1489.4545 1489.4545"
   sodipodi:docname="image1.svg"
   inkscape:version="1.1.2 (b8e25be833, 2022-02-05)"
   xmlns:inkscape="http://www.inkscape.org/namespaces/inkscape"
   xmlns:sodipodi="http://sodipodi.sourceforge.net/DTD/sodipodi-0.dtd"
   xmlns="http://www.w3.org/2000/svg"
   xmlns:svg="http://www.w3.org/2000/svg">
  <defs
     id="defs133" />
  <sodipodi:namedview
     id="namedview131"
     pagecolor="#ffffff"
     bordercolor="#666666"
     borderopacity="1.0"
     inkscape:pageshadow="2"
     inkscape:pageopacity="0.0"
     inkscape:pagecheckerboard="0"
     showgrid="false"
     inkscape:zoom="0.27124025"
     inkscape:cx="1459.9603"
     inkscape:cy="1207.4167"
     inkscape:window-width="1920"
     inkscape:window-height="1001"
     inkscape:window-x="-9"
     inkscape:window-y="-9"
     inkscape:window-maximized="1"
     inkscape:current-layer="g135" />
  <g
     inkscape:groupmode="layer"
     inkscape:label="Image"
     id="g135">
    <path
       style="fill:#000000;stroke-width:0.727273"
       d="m 456.54921,1168.6696 -322.79024,-0.3657 -1.7552,-2.0406 c -2.29368,-2.6665 -2.28197,-5.8624 0.03,-8.1743 l 1.78512,-1.7851 h 372.27573 c 204.75164,0 476.48257,0.2182 603.84658,0.4849 l 231.5708,0.4848 2.0047,2.0046 c 2.6339,2.634 2.5939,5.2757 -0.1213,7.9907 l -2.1259,2.1259 -280.965,-0.1798 c -154.53072,-0.099 -426.22058,-0.3443 -603.75521,-0.5454 z m -298.30064,-60.4524 c -19.21587,-1.4875 -32.56288,-12.6345 -38.2257,-31.9251 -3.76009,-12.8089 -2.6619,-36.427 2.58226,-55.5355 17.20073,-62.67554 56.04091,-131.70634 105.21452,-186.99814 37.67901,-42.3671 78.19695,-60.0694 106.60803,-46.577 19.32915,9.1794 25.20556,34.1173 15.04413,63.8432 -3.31758,9.7051 -11.49486,26.2698 -13.90366,28.1645 -4.07391,3.2046 -10.17664,1.1397 -11.87927,-4.0193 -0.80449,-2.4376 -0.60902,-3.0457 3.91184,-12.1704 21.42888,-43.2512 12.52351,-70.4818 -20.98852,-64.1783 -21.89346,4.118 -34.14675,11.5213 -57.13799,34.5217 -48.97672,48.9964 -97.66236,132.0959 -112.29622,191.67384 -5.65887,23.0386 -5.39886,44.9341 0.65628,55.2664 17.08701,29.1567 77.57131,9.9671 170.62063,-54.1323 14.64792,-10.0906 15.60379,-10.5786 19.34613,-9.8765 4.41602,0.8285 6.89957,7.3213 4.24832,11.1065 -2.19189,3.1293 -35.14802,25.3126 -57.80079,38.9065 -50.92957,30.5627 -88.30728,44.0735 -115.99999,41.9299 z m 692.96907,-12.8455 c -12.21426,-4.3846 -17.83113,-18.0867 -14.82248,-36.1587 0.33295,-2 0.55891,-3.6766 0.50211,-3.7258 -0.0567,-0.05 -4.03054,3.0033 -8.83054,6.7832 -19.69338,15.5081 -37.03746,25.8616 -47.35098,28.2659 -12.80691,2.9854 -25.8712,0.6979 -33.54967,-5.8746 -7.60551,-6.5101 -10.8204,-22.9352 -7.67267,-39.2003 0.38888,-2.0094 -0.48504,-1.3586 -8.22305,6.1242 -27.8486,26.9299 -61.8535,44.4284 -77.86351,40.0676 -23.02981,-6.2729 -19.05678,-39.3984 11.31595,-94.34784 l 3.66739,-6.6349 -7.43445,2.725 c -4.08896,1.4988 -9.88901,3.7107 -12.88901,4.9153 -8.86123,3.55794 -22.54534,8.02964 -30.22856,9.87814 -7.71731,1.8565 -7.58928,1.7538 -9.79144,7.856 -5.90873,16.3731 -30.42507,43.818 -51.92208,58.1244 -27.29405,18.1644 -49.35332,22.0069 -65.58903,11.4251 -22.40498,-14.6027 -25.26965,-41.0191 -7.71122,-71.1087 13.01,-22.29494 36.35936,-42.22164 57.60597,-49.16164 5.52602,-1.805 7.26196,-2.0233 16.36364,-2.0572 25.95432,-0.097 47.90932,10.7863 53.20691,26.3743 0.7362,2.1663 1.74787,4.0957 2.24816,4.2878 1.24353,0.4773 16.54728,-4.3212 28.90856,-9.0643 5.6,-2.1488 12.96364,-4.8938 16.36364,-6.1001 3.4,-1.2062 11.42476,-4.7897 17.8328,-7.9632 6.40806,-3.1736 12.08587,-5.7702 12.61736,-5.7702 2.429,0 6.14503,2.5584 7.12592,4.906 1.36319,3.2625 1.16135,3.7752 -6.65856,16.9122 -20.58514,34.58194 -27.5272,49.04334 -32.11882,66.90914 -5.4621,21.2526 -2.8344,26.3365 11.42394,22.1023 30.4049,-9.0293 76.92271,-54.2162 101.05008,-98.15904 6.11978,-11.1459 8.86895,-14.1251 13.03426,-14.1251 4.2997,0 7.32938,2.9951 7.32938,7.2457 0,3.5289 -1.31128,6.2638 -8.38189,17.4815 -15.81528,25.09174 -28.26888,59.74754 -27.00786,75.15754 0.73462,8.9768 4.17375,12.6032 12.65702,13.3462 14.81753,1.2978 35.51833,-10.9338 69.67505,-41.1693 6.76553,-5.9889 8.18168,-7.6164 8.9736,-10.3136 5.06953,-17.2649 28.06495,-67.18244 49.09811,-106.58034 2.59338,-4.8579 4.51709,-9.0306 4.27484,-9.2728 -0.24219,-0.2422 -12.96451,-0.4404 -28.27186,-0.4404 -15.92734,0 -28.61309,-0.2972 -29.65891,-0.6948 -3.80458,-1.4465 -5.44072,-6.6865 -3.32319,-10.6431 2.20865,-4.127 2.3749,-4.144 37.74072,-3.845 l 32.40095,0.2738 9.34443,-16.3636 c 16.80116,-29.4214 30.10291,-51.9684 31.6432,-53.6364 3.22647,-3.494 10.35971,-1.4555 11.80669,3.3741 0.97833,3.2654 -0.17774,5.971 -8.42509,19.7168 -6.81222,11.3539 -26.54582,46.0052 -26.54582,46.6131 0,0.29 15.47833,0.6389 34.39637,0.7753 31.20649,0.225 34.57539,0.3654 36.32759,1.5138 2.6173,1.7157 3.7196,5.7909 2.4123,8.9195 -2.0583,4.9264 -0.1987,4.7233 -43.29808,4.728 l -38.92909,0.01 -8.14363,15.4502 c -43.01862,81.61614 -61.61796,131.69384 -56.18211,151.26744 1.49266,5.3747 8.85535,6.354 19.96211,2.655 14.38254,-4.7902 55.80567,-27.311 85.51061,-46.4903 l 8.41979,-5.4363 3.7878,-7.2727 c 15.2754,-29.32874 45.26511,-53.56324 69.72261,-56.34234 22.3706,-2.5419 51.3271,8.9228 58.5502,23.1818 1.095,2.1617 2.1371,4.0764 2.3156,4.2549 1.8827,1.8828 52.5869,-14.7663 66.9515,-21.984 12.3543,-6.2076 14.3823,-6.5871 17.9866,-3.3666 3.3445,2.9882 3.2715,6.527 -0.2346,11.3881 -2.8393,3.9365 -18.8904,33.29674 -29.2011,53.41354 -6.3421,12.3739 -6.435,12.6264 -3.3479,9.0928 50.4957,-57.79814 78.0636,-79.94704 98.0225,-78.75434 19.7826,1.1822 22.8265,17.1324 10.5469,55.26524 -10.0867,31.3229 -12.6481,48.5315 -8.2902,55.6975 1.6617,2.7324 3.7913,3.3865 9.3246,2.8641 13.7183,-1.2952 48.3262,-20.8857 73.4953,-41.6037 4.1582,-3.4228 8.3655,-6.4253 9.3496,-6.6723 2.7402,-0.6878 6.3062,1.3924 7.8064,4.5538 1.2899,2.7183 1.2846,2.8026 -0.3774,5.9354 -3.403,6.4148 -25.0741,22.6204 -49.678,37.1494 -29.0169,17.1349 -49.1206,20.5093 -59.6222,10.0077 -10.7501,-10.7501 -9.3734,-32.4112 4.8666,-76.5718 9.1861,-28.48774 7.7286,-35.49194 -6.2419,-29.99684 -15.7798,6.2068 -48.6159,37.66734 -86.8533,83.21494 -19.4637,23.1847 -22.2737,25.8181 -27.549,25.8181 -6.7829,0 -9.4202,-4.7583 -7.2592,-13.0975 2.3456,-9.0522 15.4961,-37.0456 32.2614,-68.6747 4.4391,-8.37474 7.9731,-15.32484 7.8532,-15.44464 -0.1197,-0.1198 -6.5768,1.9186 -14.3489,4.5298 -18.1209,6.088 -39.1641,11.95984 -42.8615,11.95984 -1.7142,0 -2.0064,0.4873 -3.3234,5.5434 -4.5596,17.5059 -29.8067,47.0561 -53.8387,63.0149 -27.2254,18.0796 -48.83801,21.8414 -65.09951,11.3311 -11.6728,-7.5445 -18.3044,-18.2624 -19.31873,-31.2225 l -0.43164,-5.5148 -13.53789,8.15 c -26.78472,16.1245 -58.49549,32.479 -71.04763,36.6422 -9.31076,3.088 -19.02,3.7416 -24.79396,1.6689 z m -330.54997,-20.5362 c 18.23261,-5.0525 49.58479,-27.8644 61.77519,-44.9477 3.74843,-5.253 10.35115,-16.0684 10.35115,-16.9554 0,-0.3267 -7.93637,-0.5983 -17.63637,-0.6037 -15.59066,-0.01 -18.26559,-0.1845 -23.06107,-1.5165 -13.69046,-3.8025 -21.60825,-10.1764 -23.56007,-18.96584 l -0.83393,-3.7553 -5.45428,4.3498 c -16.42283,13.09754 -31.35084,34.12714 -34.60352,48.74734 -2.77322,12.4651 -0.43805,21.2877 7.60548,28.7346 6.98631,6.4681 14.53772,7.9276 25.41742,4.9127 z m 491.84833,-0.5717 c 16.4379,-5.841 37.155,-20.1022 50.5207,-34.7775 10.5183,-11.5488 21.9997,-28.2733 20.464,-29.809 -0.1889,-0.1889 -2.4297,-0.01 -4.9796,0.4088 -13.291,2.1567 -33.99,-0.075 -43.7797,-4.7204 -6.8961,-3.2721 -14.2756,-12.16834 -14.3039,-17.24364 -0.01,-1.8644 -0.6792,-1.6255 -5.8616,2.0942 -21.80661,15.65154 -39.50361,44.48174 -38.34901,62.47404 0.6024,9.3859 7.7757,19.3952 16.1118,22.4818 4.0952,1.5162 14.69741,1.039 20.17731,-0.9083 z M 593.72098,997.28876 c 3.66585,-0.6059 3.18806,-2.322 -1.99528,-7.1667 -6.63049,-6.1973 -22.96715,-11.9823 -33.84078,-11.9833 -10.17504,0 -11.4556,0.3936 -13.1181,4.0429 -3.43746,7.5458 -0.48696,11.1016 12.02719,14.495 3.8261,1.0375 31.57039,1.4973 36.92697,0.6121 z m 486.19272,-2.3796 c 4.348,-0.8395 4.4327,-1.1567 1.1967,-4.481 -5.2562,-5.3996 -16.1509,-9.2885 -30.5054,-10.8891 -9.1668,-1.0222 -11.6411,-0.5742 -13.4793,2.4407 -3.6277,5.9496 -0.049,9.5424 12.4813,12.5286 7.8192,1.8635 21.7741,2.0481 30.3067,0.4008 z M 329.34861,1092.62 c -5.99708,-3.254 -5.34484,-8.2818 3.82537,-29.4879 11.44838,-26.4744 47.06835,-98.00264 49.92144,-100.24694 3.1867,-2.5066 9.28,-1.354 11.13158,2.1057 1.92522,3.5973 0.98648,5.9755 -13.55147,34.3305 -12.70507,24.78034 -19.96082,39.51134 -18.93206,38.43714 0.19153,-0.2 2.87208,-3.4728 5.95677,-7.2728 27.47476,-33.84584 52.96014,-58.34454 66.01271,-63.45704 12.25935,-4.8019 23.9619,0.7863 30.59467,14.6093 l 3.02111,6.2962 0.26482,10.2411 c 0.43186,16.70164 -1.50686,22.12864 -7.9052,22.12864 -5.85098,0 -8.47838,-3.3771 -7.556,-9.7121 2.26386,-15.54824 -2.07868,-29.07254 -9.64552,-30.03974 -10.50755,-1.343 -38.45462,27.89034 -89.84314,93.97814 -15.32116,19.7037 -17.37758,21.3006 -23.29508,18.0898 z m 417.2787,-162.05304 c -1.95002,-1.9501 -2.26708,-3.4101 -3.09749,-14.2631 l -0.58428,-7.6363 -8.91997,8.7142 c -8.60533,8.4069 -9.02667,8.7115 -11.94518,8.635 -3.74575,-0.098 -7.10457,-3.3443 -7.10457,-6.866 0,-5.9515 24.04037,-29.3648 31.72967,-30.9021 3.59818,-0.7193 8.63957,1.8421 9.61884,4.8872 2.036,6.3311 3.71709,32.8568 2.25607,35.5988 -2.16247,4.0583 -8.7216,5.0638 -11.95309,1.8323 z m 386.53039,-89.6351 c -148.34591,-0.9558 -154.61851,-1.0497 -156.36371,-2.3407 -3.658,-2.7059 -3.7791,-7.6189 -0.2449,-9.9346 1.8602,-1.2188 9.5898,-1.2403 160.91761,-0.4482 203.6007,1.0658 211.1855,1.1851 213.7139,3.3599 2.491,2.1427 2.6267,6.2271 0.2847,8.57 l -1.6196,1.6202 -31.0713,0.085 c -17.0892,0.047 -100.6167,-0.3635 -185.6167,-0.9112 z m -745.81823,-2.2395 c -4.72719,-1.1436 -6.36445,-7.1425 -2.85033,-10.4435 l 1.87695,-1.7632 258.30486,0.2379 c 142.06771,0.1308 258.95941,0.4139 259.75941,0.629 4.65847,1.2529 6.26458,6.7529 2.94218,10.0753 l -1.78516,1.7851 -258.39668,-0.084 c -142.11818,-0.046 -259.05123,-0.2427 -259.85123,-0.4362 z"
       id="path139" />
  </g>
</svg>
